<?xml version="1.0" standalone="no"?>
<!DOCTYPE svg PUBLIC "-//W3C//DTD SVG 20010904//EN"
 "http://www.w3.org/TR/2001/REC-SVG-20010904/DTD/svg10.dtd">
<svg version="1.0" xmlns="http://www.w3.org/2000/svg"
 width="520.000000pt" height="520.000000pt" viewBox="0 0 520.000000 520.000000"
 preserveAspectRatio="xMidYMid meet">
<metadata>
Created by potrace 1.14, written by Peter Selinger 2001-2017
</metadata>
<g transform="translate(0.000000,520.000000) scale(0.100000,-0.100000)"
fill="#000000" stroke="none">
<path d="M3011 4341 c-15 -13 -82 -186 -96 -251 -2 -8 -20 -62 -41 -120 -20
-58 -37 -109 -39 -115 -8 -34 -28 -75 -36 -75 -6 0 -16 -14 -23 -32 -11 -25
-11 -40 -2 -71 9 -33 17 -41 51 -52 56 -18 99 -29 108 -27 4 1 7 -3 7 -9 0 -5
4 -8 9 -5 5 4 22 1 38 -5 23 -9 83 -26 153 -44 8 -2 47 -14 85 -25 39 -12 77
-23 85 -24 8 -1 22 -5 30 -8 8 -4 29 -10 45 -14 17 -4 32 -8 35 -9 3 0 32 -9
65 -19 33 -10 69 -20 79 -22 27 -5 37 -17 27 -32 -7 -11 -67 -32 -141 -48 -14
-3 -32 -7 -40 -9 -8 -2 -15 -4 -15 -5 0 -1 -7 -3 -15 -5 -8 -2 -109 -29 -225
-60 -115 -31 -221 -59 -235 -61 -14 -3 -38 -9 -55 -14 -39 -13 -481 -129 -509
-134 -11 -2 -32 -9 -46 -14 -14 -5 -28 -10 -32 -11 -5 0 -10 -2 -13 -2 -3 -1
-13 -2 -22 -4 -10 -1 -25 -5 -33 -8 -12 -5 -88 -25 -160 -43 -8 -2 -41 -10
-72 -19 l-57 -15 -208 102 c-134 65 -201 103 -188 105 79 16 102 36 70 63 -12
10 -32 8 -105 -10 -49 -12 -93 -27 -98 -34 -5 -6 -8 -132 -7 -281 1 -237 3
-274 18 -303 16 -28 47 -47 230 -136 117 -57 228 -109 249 -115 33 -11 114 -9
156 3 9 3 33 7 52 10 43 7 76 14 98 20 9 3 37 8 62 11 25 4 83 14 130 24 47 9
91 17 98 16 8 0 24 -26 37 -57 l23 -57 -21 -6 c-40 -12 -335 -105 -499 -157
-90 -28 -168 -53 -174 -54 -6 -1 -42 -12 -80 -24 -190 -61 -256 -86 -258 -95
0 -5 23 -22 52 -37 30 -15 65 -39 79 -53 24 -23 41 -30 70 -26 6 1 56 -19 110
-45 256 -121 267 -125 293 -118 14 4 30 8 36 9 6 2 22 6 34 10 20 6 22 5 15
-25 -19 -85 77 -152 150 -104 27 17 46 63 40 95 -6 29 -33 69 -48 70 -6 0 -2
4 11 10 21 8 75 23 343 93 48 13 91 26 96 29 5 3 23 9 40 11 16 3 68 17 114
30 46 13 113 32 149 41 36 9 73 18 82 21 16 5 16 3 3 -23 -20 -38 -19 -72 5
-111 47 -76 155 -70 193 11 12 27 14 44 8 88 -2 12 -46 57 -61 62 -12 4 -11 6
5 12 79 30 85 35 85 57 0 21 -121 368 -154 444 -13 28 -8 58 8 54 3 -1 25 2
49 6 23 4 51 8 62 9 11 1 27 4 35 7 8 3 33 11 56 17 58 16 82 47 95 122 7 35
12 65 13 66 1 2 298 71 335 78 13 2 26 7 30 10 5 6 -16 3 -89 -10 -14 -2 -41
-7 -60 -9 -19 -3 -66 -12 -105 -21 -87 -18 -116 -19 -110 -2 2 6 6 38 9 71 6
65 6 65 32 70 11 3 30 9 44 14 29 11 33 12 60 12 11 0 20 4 20 9 0 4 -17 5
-37 1 -21 -4 -55 -11 -75 -15 -35 -7 -37 -6 -33 16 3 13 7 53 10 89 3 36 8 79
10 95 2 17 7 57 10 90 7 66 13 92 45 179 12 35 17 63 12 68 -5 5 13 72 43 163
29 85 50 157 47 160 -3 3 0 5 6 5 7 0 11 3 10 8 -1 4 17 64 40 133 23 69 40
134 36 143 -8 21 -52 44 -96 50 -18 2 -62 11 -98 20 -36 8 -108 25 -160 36
-137 31 -266 59 -335 75 -146 34 -144 34 -164 16z m109 -108 c14 -2 31 -5 38
-5 6 -1 12 -5 12 -10 0 -5 4 -7 8 -4 5 3 47 -4 93 -15 46 -11 93 -22 104 -24
11 -2 20 -4 20 -5 0 -1 9 -3 20 -5 11 -2 29 -5 40 -8 11 -3 76 -17 145 -32 69
-15 129 -31 134 -36 6 -5 -10 -68 -39 -156 -27 -81 -50 -157 -52 -167 -2 -11
-7 -24 -11 -30 -4 -6 -19 -46 -32 -88 -14 -43 -28 -78 -32 -78 -4 0 -112 30
-240 66 -128 36 -240 67 -248 69 -8 2 -15 4 -15 5 0 1 -7 3 -15 5 -40 7 -146
39 -152 44 -4 4 29 116 73 249 76 229 82 242 102 236 12 -4 33 -9 47 -11z
m-250 -519 c0 3 19 -2 43 -10 23 -9 49 -17 57 -19 8 -2 40 -10 70 -19 86 -24
174 -48 190 -52 25 -6 164 -46 180 -52 8 -3 20 -6 25 -7 10 -3 89 -25 110 -31
6 -2 26 -7 45 -12 19 -4 35 -13 34 -20 -4 -46 3 -45 -94 -17 -30 9 -62 17 -70
20 -8 2 -49 13 -90 25 -41 12 -115 33 -165 46 -49 14 -97 27 -105 29 -18 5
-161 45 -175 49 -100 26 -124 37 -118 54 9 25 24 32 45 21 10 -5 18 -7 18 -5z
m694 -447 c-3 -18 -6 -44 -6 -58 -1 -26 -28 -39 -107 -54 -13 -2 -48 -12 -79
-20 -65 -19 -86 -14 -76 17 4 13 8 35 8 50 1 32 4 35 39 42 14 2 30 7 35 10 5
3 22 7 38 10 16 3 49 12 74 19 75 22 81 20 74 -16z m-325 -111 c2 -59 8 -53
-74 -71 -34 -7 -229 -55 -247 -61 -15 -4 -17 2 -14 45 1 28 5 53 8 57 9 8 259
76 280 76 10 -1 20 4 23 9 13 20 22 -2 24 -55z m308 -58 c-1 -21 -5 -38 -8
-38 -3 0 -5 -18 -4 -40 1 -29 -3 -41 -14 -45 -16 -5 -95 -21 -156 -32 -44 -8
-60 -11 -60 -13 0 -1 -8 -3 -17 -5 -15 -3 -17 2 -13 28 3 18 7 51 9 75 2 24 6
44 7 46 2 1 36 10 74 20 70 18 85 22 126 31 12 2 23 6 25 8 2 2 11 4 19 4 10
0 14 -11 12 -39z m-706 5 c0 -5 2 -27 3 -51 2 -41 1 -43 -33 -52 -20 -5 -107
-27 -193 -48 l-158 -40 0 42 c0 22 4 46 8 52 4 5 86 31 182 56 199 52 190 51
191 41z m-1377 -20 c4 -5 11 -8 14 -9 4 0 18 -6 32 -13 20 -10 26 -20 25 -46
0 -18 -3 -36 -7 -40 -3 -4 -24 6 -47 20 -35 23 -40 32 -39 61 1 34 8 41 22 27z
m1777 -66 c7 -81 -1 -100 -46 -109 -22 -4 -69 -14 -105 -22 -36 -8 -78 -17
-95 -20 -16 -3 -47 -9 -67 -15 -42 -10 -42 -10 -38 49 1 19 3 44 4 55 1 18 41
36 116 50 14 3 50 12 80 20 30 9 69 18 85 21 17 3 32 8 34 10 16 15 29 -2 32
-39z m-1488 -72 l134 -65 0 -184 c1 -194 5 -214 49 -243 22 -14 33 -15 97 -3
80 15 86 17 90 20 2 2 33 9 62 14 11 2 56 11 100 21 44 9 87 18 95 20 8 2 35
8 60 14 25 5 61 13 80 16 19 3 53 11 75 16 22 6 49 13 60 15 31 6 67 14 95 19
14 3 36 7 50 11 14 3 34 7 45 9 11 2 31 7 45 10 14 3 36 8 49 11 12 3 53 12
90 20 76 18 90 21 151 34 52 11 54 11 180 40 160 37 153 37 147 -2 -8 -63 -25
-81 -84 -92 -106 -21 -202 -38 -218 -41 -11 -1 -54 -10 -95 -18 -105 -22 -131
-27 -165 -32 -16 -3 -43 -8 -60 -11 -16 -4 -37 -8 -45 -10 -44 -6 -97 -16
-112 -20 -10 -3 -30 -7 -45 -10 -16 -2 -50 -9 -78 -14 -27 -6 -59 -12 -70 -14
-49 -8 -92 -16 -115 -21 -14 -3 -39 -7 -57 -10 -18 -2 -49 -8 -70 -14 -21 -5
-56 -12 -78 -15 -22 -4 -51 -8 -65 -11 -138 -29 -195 -36 -229 -31 -48 6 -458
205 -467 225 -3 9 -8 31 -11 48 l-5 33 44 -19 c24 -10 100 -46 171 -80 70 -34
132 -62 138 -64 12 -2 18 136 7 165 -3 7 -53 36 -111 63 l-105 50 4 44 c2 24
5 46 7 48 2 2 49 -15 103 -37 109 -44 140 -49 67 -9 -27 14 -76 40 -110 59
-65 35 -62 30 -54 103 2 14 21 7 154 -58z m648 23 c0 -13 2 -33 3 -46 2 -17
-4 -24 -23 -28 -14 -3 -47 -12 -73 -20 -27 -7 -48 -11 -48 -8 0 3 -6 2 -12 -3
-7 -4 -17 -8 -23 -9 -40 -8 -66 -13 -103 -23 l-42 -12 6 -77 c7 -92 12 -144
13 -154 1 -5 5 -8 11 -8 5 0 7 6 4 14 -6 15 24 36 60 41 11 2 71 14 131 28 61
14 112 23 114 21 3 -2 6 -24 7 -49 3 -50 3 -50 -111 -70 -11 -2 -54 -11 -95
-20 -41 -9 -86 -18 -100 -20 -14 -2 -36 -7 -50 -10 -14 -3 -36 -8 -50 -11 -14
-2 -30 -6 -37 -9 -6 -2 -17 4 -25 13 -11 13 -14 54 -13 189 0 94 3 175 7 178
3 4 90 28 192 54 102 26 188 49 190 52 3 3 19 6 36 7 25 2 30 -1 31 -20z m451
-64 c3 -59 -3 -81 -20 -70 -6 3 -14 1 -17 -5 -4 -5 -13 -8 -20 -5 -7 2 -16 2
-19 -2 -4 -3 -15 -7 -26 -9 -10 -1 -71 -14 -134 -28 -187 -40 -167 -42 -165
15 2 27 5 54 8 58 5 8 349 101 378 102 7 0 12 -22 15 -56z m-1348 26 c41 -18
43 -21 44 -65 1 -25 0 -45 -3 -45 -3 0 -27 10 -55 22 -46 20 -49 24 -48 57 1
58 2 59 62 31z m2020 -23 c-3 -23 -6 -53 -8 -67 -2 -14 -4 -28 -4 -31 -2 -6
-62 -20 -202 -45 -25 -4 -48 -7 -52 -6 -4 1 -18 -2 -31 -7 -13 -5 -39 -12 -58
-15 -19 -3 -45 -8 -59 -11 -14 -3 -47 -10 -75 -15 -27 -6 -61 -12 -75 -15 -72
-15 -80 -15 -81 -3 -3 35 3 94 10 101 7 7 78 26 152 41 13 2 60 14 104 25 49
13 83 17 90 11 6 -5 10 -29 8 -55 -2 -25 0 -45 5 -45 8 0 11 11 13 48 3 66 12
77 76 88 16 3 46 10 68 16 22 5 48 12 59 14 10 2 20 5 22 7 2 1 12 3 23 4 18
2 20 -3 15 -40z m-1113 -64 c0 -5 1 -28 2 -52 2 -44 2 -44 -43 -57 -25 -8 -63
-16 -85 -19 -44 -7 -120 -23 -148 -31 -15 -5 -17 1 -14 40 3 51 11 63 47 69
14 3 54 13 90 22 36 9 76 19 90 22 13 2 27 6 29 9 7 7 31 5 32 -3z m-901 -51
c45 -22 46 -23 47 -72 1 -28 0 -50 -3 -50 -3 0 -29 11 -58 25 -49 23 -53 27
-53 62 -1 44 4 66 15 61 4 -2 27 -13 52 -26z m1348 -46 c1 -24 3 -50 4 -57 3
-11 -171 -54 -337 -83 -16 -3 -42 -8 -57 -11 -28 -5 -28 -5 -24 46 3 28 6 52
8 54 3 3 188 48 253 61 11 2 43 10 70 18 80 23 82 22 83 -28z m-1173 -40 l80
-41 2 -47 c0 -27 -1 -48 -2 -48 -2 0 -47 20 -99 45 l-95 46 4 42 c2 23 4 43 4
45 3 8 36 -5 106 -42z m1526 -377 c42 -107 79 -204 81 -214 2 -15 -13 -23 -87
-47 -49 -16 -97 -31 -105 -33 -26 -6 -474 -143 -502 -154 -16 -6 -28 -7 -28
-2 0 4 -6 8 -12 8 -7 0 -40 13 -73 29 -33 16 -62 29 -65 29 -3 0 -12 5 -20 10
-8 5 -19 10 -25 11 -5 1 -57 24 -115 52 -58 27 -116 53 -129 57 -33 10 -16 21
69 43 41 11 126 34 189 51 62 17 115 31 117 31 2 0 1 -14 -3 -31 -12 -63 44
-105 107 -79 41 17 51 70 21 111 -17 23 -19 32 -10 46 8 14 5 33 -15 87 -14
37 -26 74 -26 82 0 8 18 15 48 20 55 8 63 9 122 22 25 6 61 13 80 16 64 10
231 44 235 48 2 1 18 3 36 3 l32 0 78 -196z m-1095 -299 c47 -22 87 -40 89
-40 3 0 55 -24 260 -120 22 -11 37 -19 33 -20 -3 0 -57 -16 -120 -36 -62 -20
-117 -37 -123 -38 -37 -8 -133 -38 -146 -45 -10 -6 -26 -4 -45 4 -41 20 -148
68 -154 70 -14 5 -61 25 -101 44 -43 20 -44 23 -41 60 3 31 -1 42 -22 58 l-26
21 43 11 c23 6 89 24 147 40 58 16 108 30 113 30 4 1 46 -17 93 -39z m-486
-85 c-6 -8 -18 -11 -26 -8 -12 4 -12 8 3 18 22 16 38 8 23 -10z"/>
<path d="M2431 4029 c-11 -18 -23 -57 -27 -86 -6 -49 2 -279 11 -293 2 -3 6
-37 10 -75 4 -39 9 -73 11 -76 1 -3 6 -28 10 -55 7 -54 19 -84 35 -84 6 0 6 7
-1 19 -14 28 -12 97 4 129 22 43 54 68 68 54 7 -7 8 -12 4 -12 -5 0 -3 -7 4
-14 15 -19 21 -97 8 -113 -12 -15 -1 -36 15 -26 19 12 95 15 115 4 12 -6 23
-5 37 5 10 8 30 14 43 14 23 0 24 3 19 36 -3 20 -7 38 -9 39 -2 2 -26 -1 -53
-6 -84 -17 -106 -19 -100 -8 8 11 65 42 65 34 0 -3 8 -1 18 4 11 6 24 6 34 0
11 -6 19 -6 23 1 7 11 -13 90 -23 90 -4 0 -27 -5 -52 -11 -25 -6 -53 -12 -63
-14 -9 -2 -21 -6 -26 -10 -5 -3 -12 -1 -16 4 -9 15 51 42 102 46 25 2 47 6 50
9 9 8 -19 77 -33 83 -7 2 -45 -2 -83 -11 -85 -20 -86 -20 -68 -1 22 21 92 43
122 37 27 -5 27 -4 3 60 -11 30 -21 31 -143 13 l-40 -6 25 20 c27 22 73 33
108 27 12 -3 22 -3 22 0 0 3 -16 31 -36 62 -41 63 -107 132 -129 132 -7 0 -20
3 -29 6 -10 4 -22 -5 -35 -27z"/>
<path d="M2195 3748 c-4 -19 -10 -93 -14 -170 -1 -12 -9 -16 -30 -16 -32 1
-85 -32 -102 -64 -6 -11 -13 -50 -15 -87 -3 -36 -6 -87 -8 -113 l-4 -48 32 0
c76 0 126 -50 147 -148 12 -49 24 -70 35 -59 2 2 -2 29 -10 59 -25 96 -6 174
56 229 17 15 42 27 91 43 25 8 23 78 -5 127 -17 31 -30 40 -68 50 l-46 12 5
46 c10 79 7 144 -7 148 -7 3 -10 -1 -6 -11 4 -10 1 -16 -7 -16 -7 0 -9 3 -6 7
8 7 -11 33 -24 33 -5 0 -11 -10 -14 -22z m145 -253 c13 -14 19 -25 14 -25 -8
1 -50 50 -41 50 2 0 14 -11 27 -25z"/>
<path d="M1762 3647 c-33 -36 -40 -60 -37 -114 3 -48 1 -52 -25 -63 -33 -14
-55 -59 -47 -98 4 -21 0 -33 -19 -51 -28 -27 -31 -59 -9 -101 14 -28 20 -30
71 -30 50 0 59 -3 85 -31 16 -17 29 -35 29 -40 0 -5 4 -9 10 -9 6 0 6 9 1 23
-4 12 -12 45 -16 72 -5 28 -10 57 -11 65 -2 8 -6 47 -10 85 -3 39 -8 72 -10
75 -1 3 1 12 7 20 7 13 9 12 10 -2 1 -10 2 -21 3 -25 1 -5 5 -24 9 -43 4 -19
10 -46 13 -60 3 -14 9 -41 14 -60 4 -19 17 -60 27 -90 l20 -54 24 28 c13 16
32 37 42 46 22 21 37 78 29 115 -2 15 -20 42 -39 60 -28 27 -33 38 -27 57 15
44 -4 108 -31 108 -8 0 -15 4 -15 10 0 5 -7 7 -15 4 -8 -4 -15 -2 -16 2 -1 5
-2 20 -3 34 -8 79 -31 103 -64 67z"/>
<path d="M2853 3537 c-21 -6 -33 -17 -36 -33 -2 -13 0 -21 4 -18 5 3 9 -7 10
-23 0 -15 3 -37 5 -48 3 -11 6 -26 6 -32 2 -18 5 -17 49 18 21 16 53 34 71 40
40 11 121 14 136 5 6 -3 13 -2 16 2 3 5 -12 26 -34 46 -22 20 -40 34 -40 31 0
-3 -10 0 -22 6 -27 15 -123 18 -165 6z"/>
<path d="M2510 3481 c-9 -27 -10 -47 -3 -67 l10 -29 12 22 c15 29 17 91 4 104
-6 6 -14 -4 -23 -30z"/>
<path d="M3278 3424 c-43 -23 -50 -45 -26 -82 21 -33 32 -39 43 -22 4 6 10 8
15 5 5 -3 12 0 15 6 4 5 13 8 21 5 7 -3 16 -1 19 4 4 6 14 10 24 10 27 0 42
22 28 40 -36 48 -90 61 -139 34z"/>
<path d="M2955 3404 c-43 -22 -84 -63 -106 -106 -11 -21 -17 -38 -15 -38 3 0
1 -13 -4 -29 -7 -24 -5 -28 9 -25 14 3 155 38 206 51 11 3 28 6 38 6 9 1 17 6
17 11 0 5 3 7 6 3 3 -3 17 -2 31 4 13 5 38 11 56 14 42 8 44 11 20 43 -50 67
-188 103 -258 66z m157 -29 c27 -6 49 -25 28 -25 -32 1 -113 27 -100 32 8 3
23 4 33 2 9 -2 27 -6 39 -9z"/>
<path d="M2785 3393 c-44 -9 -46 -12 -24 -34 11 -11 25 -34 31 -51 9 -25 12
-28 20 -14 7 12 2 99 -5 102 -1 0 -11 -1 -22 -3z"/>
<path d="M2603 3372 c-12 -2 -36 -19 -52 -38 l-30 -34 -37 21 c-47 26 -127 28
-155 3 -10 -9 -19 -14 -19 -10 0 4 -11 -5 -24 -21 -26 -31 -45 -87 -40 -118 2
-11 5 -39 6 -61 2 -23 6 -40 10 -38 3 2 8 -2 11 -8 3 -10 24 -8 88 9 46 13 95
25 109 28 14 3 40 10 58 16 18 6 40 8 50 4 9 -3 13 -3 9 2 -5 4 13 14 40 21
26 7 53 14 58 16 6 1 27 6 48 11 49 10 58 33 39 94 -18 56 -45 87 -86 100 -31
9 -42 10 -83 3z m-208 -85 c-34 -11 -85 -55 -85 -73 0 -7 -4 -16 -10 -19 -18
-11 -11 21 13 55 21 32 82 63 102 52 5 -3 -4 -10 -20 -15z"/>
<path d="M2005 3201 c-50 -31 -145 -157 -145 -193 0 -9 17 -23 38 -31 36 -15
44 -14 120 8 45 12 82 21 82 20 0 -1 17 3 38 10 36 13 37 15 36 58 -4 115 -88
179 -169 128z m101 -29 c17 -11 34 -49 33 -74 0 -17 -5 -12 -20 22 -11 24 -25
48 -32 52 -7 4 -7 8 -2 8 6 0 15 -4 21 -8z"/>
<path d="M1643 3149 c-18 -5 -33 -15 -33 -22 0 -13 179 -102 187 -93 10 10
-10 68 -34 96 -27 32 -58 37 -120 19z"/>
<path d="M1820 3081 c0 -6 4 -13 10 -16 6 -3 7 1 4 9 -7 18 -14 21 -14 7z"/>
<path d="M3763 3023 c-7 -2 -13 -9 -13 -15 0 -7 5 -7 13 1 8 6 18 7 22 3 5 -4
5 -1 1 6 -4 6 -8 12 -9 11 -1 0 -8 -3 -14 -6z"/>
<path d="M2066 1280 l-59 -5 -34 -78 c-18 -44 -33 -85 -33 -93 0 -8 -4 -14 -9
-14 -5 0 -12 -13 -16 -30 -10 -44 -22 -45 -35 -3 -7 21 -16 43 -19 48 -4 6
-20 44 -36 85 -16 41 -34 78 -39 81 -5 4 -34 6 -65 5 l-56 -1 0 -210 0 -210
42 -2 c23 -2 45 2 49 8 4 6 7 63 6 126 0 69 4 111 9 106 5 -5 11 -18 13 -29 3
-10 18 -53 35 -94 17 -41 31 -80 31 -87 0 -16 17 -25 50 -29 26 -3 30 1 59 74
17 42 36 91 42 107 7 17 13 33 13 37 1 4 6 12 11 17 7 7 10 -29 10 -112 l0
-122 50 0 49 0 1 208 c1 114 -2 211 -5 215 -3 4 -32 5 -64 2z"/>
<path d="M3527 1284 c-3 -4 -32 -7 -63 -8 -57 -1 -58 -2 -60 -31 -2 -49 3 -54
62 -53 30 1 57 -2 61 -6 4 -4 7 -80 8 -169 l0 -162 45 -2 c24 -1 47 2 50 8 4
5 6 79 5 165 0 86 4 158 9 161 5 4 34 7 65 7 l55 1 1 37 c2 46 -2 48 -121 46
-51 0 -96 2 -102 6 -5 3 -12 3 -15 0z"/>
<path d="M2385 1075 c-37 -112 -68 -207 -67 -212 1 -4 25 -8 54 -8 l52 0 12
40 11 40 74 3 74 3 15 -43 c15 -43 15 -43 68 -45 43 -1 52 1 50 14 -2 9 -33
104 -69 212 l-66 196 -70 2 -69 2 -69 -204z m159 30 c9 -30 19 -61 22 -70 5
-12 -3 -15 -40 -15 -25 0 -46 3 -46 8 0 7 25 94 35 120 8 21 13 14 29 -43z"/>
<path d="M2908 1268 c-2 -7 -3 -103 -3 -213 l1 -200 52 -2 52 -2 0 74 0 74 27
-2 c23 -2 33 -13 63 -72 36 -70 37 -70 81 -73 63 -3 73 2 57 30 -7 13 -17 26
-23 30 -5 4 -6 8 -2 8 5 0 0 12 -11 28 -34 50 -35 62 -2 93 16 16 31 35 31 42
6 65 4 87 -10 120 -9 22 -27 42 -43 50 -16 6 -28 14 -28 17 0 3 -53 7 -119 8
-89 2 -120 -1 -123 -10z m213 -99 c28 -44 -5 -87 -66 -85 l-40 1 -3 49 c-2 29
1 52 8 56 17 10 91 -5 101 -21z"/>
<path d="M820 698 c0 -4 -6 -8 -14 -8 -20 0 -46 -39 -46 -67 0 -12 11 -35 24
-50 22 -24 27 -26 45 -16 17 11 22 10 35 -9 22 -31 4 -58 -39 -59 -57 -2 -60
-3 -60 -19 -1 -22 13 -28 54 -24 46 4 76 21 88 48 27 58 -32 139 -75 104 -10
-9 -16 -8 -23 3 -12 20 -11 25 7 44 9 8 24 13 34 10 19 -6 54 21 45 35 -7 11
-75 18 -75 8z"/>
<path d="M1150 700 c-13 -7 -15 -32 -15 -132 l0 -123 60 0 c73 -1 84 2 81 23
-2 13 -14 18 -46 19 -23 1 -45 4 -48 7 -3 3 -6 51 -6 105 -1 55 -3 102 -6 104
-3 3 -12 2 -20 -3z"/>
<path d="M1546 699 c2 -4 -4 -10 -13 -13 -31 -10 -63 -71 -61 -117 3 -75 73
-144 131 -128 31 9 32 9 50 9 13 0 59 63 65 89 11 54 -14 119 -57 148 -25 17
-125 27 -115 12z m79 -44 c37 -16 54 -44 51 -86 -4 -53 -35 -86 -81 -86 -86 0
-113 131 -36 172 26 13 33 13 66 0z"/>
<path d="M2422 703 c-12 -2 -26 -12 -31 -21 -8 -16 -32 -109 -32 -124 0 -4 -5
-25 -12 -45 -14 -42 -16 -63 -4 -63 4 0 14 0 22 0 9 0 15 9 15 24 0 27 8 35
45 42 21 4 25 0 31 -31 3 -20 12 -35 20 -35 8 0 17 0 22 0 11 1 7 27 -23 135
-15 55 -27 106 -28 113 0 6 -1 11 -1 11 -1 -1 -11 -4 -24 -6z m12 -121 c0 -12
-3 -22 -7 -22 -4 0 -11 0 -16 0 -4 0 -6 11 -3 25 5 31 26 28 26 -3z"/>
<path d="M2738 702 c-3 -17 -6 -238 -3 -249 2 -6 12 -9 22 -7 16 4 18 16 17
90 0 47 3 87 8 90 4 3 8 0 8 -6 0 -12 39 -71 54 -82 5 -3 10 -25 10 -47 0 -35
3 -41 22 -41 20 0 21 4 21 120 0 86 -3 123 -13 130 -17 15 -31 -14 -29 -62 2
-44 -13 -37 -39 16 -15 31 -73 67 -78 48z"/>
<path d="M3764 678 c1 -16 -1 -31 -5 -34 -5 -3 -5 -12 -2 -20 9 -24 10 -66 1
-91 -4 -13 -4 -23 1 -23 4 0 6 -13 3 -30 -3 -20 0 -30 9 -31 60 -5 119 -4 121
3 5 29 0 33 -42 38 -40 4 -45 8 -45 30 0 14 6 26 13 26 6 1 23 2 37 3 18 1 25
7 25 21 0 19 -23 26 -67 21 -7 -1 -11 11 -10 31 2 31 4 33 42 34 55 2 54 2 52
24 -1 17 -9 20 -52 21 -27 0 -57 2 -66 4 -13 2 -16 -4 -15 -27z"/>
<path d="M4160 700 l-45 -5 1 -120 c1 -66 2 -123 3 -126 2 -9 31 -6 31 3 0 5
4 7 9 3 6 -3 7 6 3 22 -13 53 -9 67 21 70 15 1 28 -2 28 -8 3 -18 5 -24 17
-46 7 -13 9 -23 5 -23 -4 0 0 -7 10 -15 31 -23 47 -9 35 28 -6 18 -14 37 -18
42 -8 13 -6 23 12 64 32 71 -18 122 -112 111z m85 -61 c5 -6 4 -9 -5 -9 -7 0
-10 -3 -7 -7 12 -11 -14 -33 -39 -33 -29 0 -46 28 -33 52 7 14 17 17 42 13 18
-4 36 -10 42 -16z"/>
<path d="M4537 702 l-28 -3 2 -80 c1 -44 0 -81 -2 -83 -2 -3 -3 -24 -1 -48 l4
-44 64 2 c35 0 67 4 70 7 13 13 -7 38 -28 37 -60 -5 -69 -1 -66 28 2 19 9 27
23 28 11 1 28 2 38 3 10 1 17 9 17 21 0 17 -7 20 -38 20 -37 0 -39 1 -38 32 1
32 2 33 45 33 34 0 45 4 47 17 3 21 -21 44 -30 29 -4 -6 -16 -7 -29 -3 -12 4
-35 6 -50 4z"/>
<path d="M2011 689 c-31 -12 -70 -58 -73 -84 -8 -99 36 -154 126 -159 40 -2
46 0 47 18 0 12 2 34 3 50 3 45 -18 57 -86 47 -10 -2 -2 -36 8 -36 14 0 34
-15 34 -26 0 -18 -47 -9 -67 14 -46 49 -21 136 39 139 28 2 48 16 48 34 0 16
-42 18 -79 3z"/>
<path d="M3379 698 c-1 -2 -2 -58 -3 -125 -1 -83 2 -124 10 -127 20 -8 31 8
29 44 -2 52 3 58 45 58 l38 1 -1 -44 c-1 -47 4 -58 28 -61 11 -2 15 8 16 34 1
85 1 158 -1 167 -1 6 -1 12 0 15 12 31 7 41 -18 38 -24 -3 -26 -7 -26 -53 l-1
-50 -37 -3 c-41 -3 -41 -3 -40 71 0 30 -3 37 -19 37 -10 0 -20 -1 -20 -2z"/>
</g>
</svg>
